<svg xmlns="http://www.w3.org/2000/svg" width="255.531" height="253.032"><path data-name="Clique aqui para ver o Vídeo • Clique aqui para ver o Vídeo" d="M115.659 7.723a2.948 2.948 0 01-.616 1.929 2.7 2.7 0 01-1.724.73 2.339 2.339 0 01-2.129-.789 4.7 4.7 0 01-1.032-2.66l-.117-1.025a4.562 4.562 0 01.439-2.9 2.512 2.512 0 011.984-1.228 2.4 2.4 0 011.761.375 3.056 3.056 0 011 1.747l1.4-.16a3.966 3.966 0 00-1.482-2.47 3.846 3.846 0 00-2.81-.633 4.182 4.182 0 00-2.17.855 3.959 3.959 0 00-1.3 1.889 6.073 6.073 0 00-.231 2.655l.116 1.017a5.445 5.445 0 001.539 3.469 3.755 3.755 0 003.159 1 4.086 4.086 0 002.668-1.228 3.917 3.917 0 00.944-2.732zM120.495.13l-1.41.051.385 10.643 6.455-.234-.042-1.148-5.044.183zm8.785-.107L127.88 0l-.177 10.649 1.4.023zm11.041 5.663a6.558 6.558 0 00-.313-2.757 4.005 4.005 0 00-1.359-1.9 4.125 4.125 0 00-2.209-.8 3.948 3.948 0 00-3.922 2.13 6.515 6.515 0 00-.744 2.664l-.06.766a6.343 6.343 0 00.344 2.686 3.974 3.974 0 003.545 2.665 4.569 4.569 0 001.119-.045l2.1 1.954 1.024-.808-1.78-1.636a4.11 4.11 0 001.507-1.632 6.586 6.586 0 00.695-2.613zm-1.461.671a4.746 4.746 0 01-.987 2.773 2.7 2.7 0 01-4.213-.391 4.814 4.814 0 01-.538-2.933l.061-.78a4.675 4.675 0 011-2.743 2.705 2.705 0 014.214.336 4.84 4.84 0 01.522 2.95zm11.016-4.233l-1.185 7.121a2.432 2.432 0 01-.919 1.664 2.913 2.913 0 01-3.589-.6 2.44 2.44 0 01-.333-1.876l1.181-7.116-1.371-.228-1.192 7.157a3.375 3.375 0 00.613 2.734 3.984 3.984 0 002.594 1.388l.37.047a3.817 3.817 0 002.691-.642 3.393 3.393 0 001.339-2.276l1.19-7.143zm9.2 6.808l-4.478-1.119.833-3.329 5.132 1.285.278-1.114-6.493-1.622-2.582 10.332 6.565 1.64.278-1.114-5.2-1.3.915-3.662 4.478 1.119zm11.11 10.174l1.349.505-.08-11.4-1.151-.431-7.544 8.547 1.357.508 1.915-2.258 4.179 1.565zm.085-9.489l-.048 5.3-3.391-1.27zm12.368 8.991a6.589 6.589 0 00.7-2.686 4.012 4.012 0 00-.586-2.262 4.122 4.122 0 00-1.775-1.537 3.949 3.949 0 00-4.426.577 6.512 6.512 0 00-1.651 2.219l-.331.693a6.332 6.332 0 00-.645 2.631 3.976 3.976 0 002.35 3.761 4.58 4.58 0 001.06.36l1.257 2.578 1.247-.386-1.073-2.166a4.1 4.1 0 001.992-.982 6.574 6.574 0 001.588-2.188zm-1.605.1a4.753 4.753 0 01-1.918 2.233 2.7 2.7 0 01-3.791-1.88 4.823 4.823 0 01.552-2.93l.337-.706a4.681 4.681 0 011.922-2.2 2.706 2.706 0 013.812 1.829 4.826 4.826 0 01-.574 2.94zm11.779 0l-3.667 6.219a2.433 2.433 0 01-1.455 1.222 2.912 2.912 0 01-3.133-1.852 2.436 2.436 0 01.364-1.87l3.663-6.212-1.2-.706-3.686 6.25a3.375 3.375 0 00-.411 2.772 3.986 3.986 0 001.921 2.228l.329.177a3.816 3.816 0 002.742.369 3.4 3.4 0 002.068-1.642l3.678-6.238zm4.927 3.223l-1.164-.785-5.954 8.83 1.164.785zm4.964 11.818a4.122 4.122 0 002.68 1.107 2.986 2.986 0 002.261-1.237 3.023 3.023 0 00.726-2.457 3.942 3.942 0 00-1.557-2.424l-3.043-2.484-6.735 8.249 1.088.888 2.636-3.229zm1.429-5.717l2.017 1.647a2.364 2.364 0 01.9 1.5 2.008 2.008 0 01-.5 1.56 1.942 1.942 0 01-1.436.81 2.525 2.525 0 01-1.673-.68l-1.954-1.6zm4.479 16.655l1.045.992 4.377-10.529-.891-.846-10.282 4.925 1.051 1 2.645-1.331 3.236 3.072zm3.783-8.7l-2.113 4.862-2.627-2.492zm2.436 15.469l1 1.124.066-.058 1.7-4.877a3.207 3.207 0 001.82.38 2.866 2.866 0 001.651-.754 2.949 2.949 0 001.133-2.311 4.179 4.179 0 00-1.234-2.61l-2.336-2.631-7.942 7.1.942 1.05 3.213-2.87 1.666 1.865zm3.88-9.919l1.432 1.6a2.493 2.493 0 01.734 1.625 1.931 1.931 0 01-.739 1.45 1.831 1.831 0 01-1.493.506 2.43 2.43 0 01-1.513-.88l-1.438-1.609zm2.268 17.794l.869 1.15 6.043-9.669-.741-.981-10.949 3.173.873 1.156 2.828-.88 2.688 3.561zm5.158-7.965l-2.881 4.45-2.182-2.889zm8.049 8.623l-.771-1.32-7.194 8.787.629 1.073 11.181-1.977-.777-1.325-9.118 1.817zm3.41 16.08l-2.013-4.153 3.087-1.5 2.307 4.759 1.033-.5-2.919-6.016-9.583 4.645 2.951 6.088 1.033-.5-2.338-4.823 3.4-1.646 2.013 4.153zm-2.142 10.8l.549 1.4.082-.032 3.3-3.978a3.209 3.209 0 001.574.99 2.866 2.866 0 001.81-.132 2.948 2.948 0 001.867-1.772 4.176 4.176 0 00-.248-2.877l-1.286-3.282-9.916 3.886.515 1.314 4.012-1.572.912 2.329zm7.09-7.948l.785 2a2.5 2.5 0 01.122 1.778 1.93 1.93 0 01-1.2 1.1 1.835 1.835 0 01-1.577-.046 2.436 2.436 0 01-1.112-1.351l-.787-2.009zm2.642 21.014a6.623 6.623 0 002.512-1.2 3.974 3.974 0 001.355-1.906 4.126 4.126 0 00.03-2.34 3.946 3.946 0 00-3.293-3.013 6.508 6.508 0 00-2.76.167l-.744.193a6.332 6.332 0 00-2.427 1.2 4.223 4.223 0 00-.2 6.246 3.99 3.99 0 002.1 1 6.582 6.582 0 002.776-.179zm-1.1-1.157a4.752 4.752 0 01-2.943-.028 2.7 2.7 0 01-1.009-4.11 4.777 4.777 0 012.6-1.473l.757-.2a4.678 4.678 0 012.92.053 2.48 2.48 0 011.508 1.773 2.508 2.508 0 01-.444 2.315 4.776 4.776 0 01-2.622 1.468zm7.365 7.529l-.205-1.515-10.023 5.34.167 1.232 11.084 2.481-.206-1.522-9.114-1.834zm1.252 11.2l-.106-1.4-10.62.8.106 1.4zm.681-1.511l.079 1.087 2.292 1.792-.124-1.634zm-11.046 7.9a5.148 5.148 0 00.662 2.5 4.091 4.091 0 001.768 1.632 5.706 5.706 0 002.65.539l.68-.011a5.693 5.693 0 002.594-.631 4.156 4.156 0 001.721-1.678 4.838 4.838 0 00.574-2.467l-.048-3.006-10.649.173zm9.5-.059a3.033 3.033 0 01-.982 2.434 4.243 4.243 0 01-2.808.9l-.622.01a4.177 4.177 0 01-2.892-.857 3.216 3.216 0 01-1.051-2.51l-.024-1.478 8.352-.135zm-3.837 13.4l.29-4.606 3.423.216-.332 5.278 1.149.079.421-6.68-10.629-.669-.425 6.752 1.146.073.337-5.351 3.767.237-.29 4.606zm-1.878 11.136a6.623 6.623 0 002.779-.128 3.979 3.979 0 001.99-1.228 4.128 4.128 0 00.937-2.144 3.947 3.947 0 00-1.862-4.056 6.509 6.509 0 00-2.609-.92l-.76-.111a6.333 6.333 0 00-2.7.164 4.223 4.223 0 00-2.613 5.677 3.99 3.99 0 001.546 1.742 6.586 6.586 0 002.627.916zm-.566-1.5a4.747 4.747 0 01-2.7-1.17 2.7 2.7 0 01.668-4.178 4.781 4.781 0 012.967-.348l.774.113a4.68 4.68 0 012.67 1.184 2.481 2.481 0 01.7 2.22 2.51 2.51 0 01-1.309 1.96 4.78 4.78 0 01-2.987.333zm-2.053 11.47a1.424 1.424 0 00-1.121.1 1.665 1.665 0 00-.6 2.091 1.4 1.4 0 00.888.672l.26.074a1.422 1.422 0 001.152-.1 1.5 1.5 0 00.681-.932 1.453 1.453 0 00-.1-1.15 1.42 1.42 0 00-.894-.677zm-8.668 18.079a2.94 2.94 0 01-1.364-1.5 2.7 2.7 0 01.228-1.858 2.34 2.34 0 011.747-1.451 4.7 4.7 0 012.82.434l.947.422a4.572 4.572 0 012.294 1.829 2.51 2.51 0 01.074 2.332 2.4 2.4 0 01-1.2 1.339 3.057 3.057 0 01-2.012-.008l-.561 1.295a3.963 3.963 0 002.88-.05 3.845 3.845 0 001.951-2.119 4.182 4.182 0 00.343-2.307 3.953 3.953 0 00-.988-2.067 6.06 6.06 0 00-2.185-1.526l-.939-.408a5.445 5.445 0 00-3.774-.4 3.752 3.752 0 00-2.446 2.236 4.091 4.091 0 00-.268 2.925 3.917 3.917 0 001.9 2.182zm4.173 7.958l.661-1.247-9.411-4.986-3.023 5.707 1.015.538 2.362-4.46zm-4.308 7.671l.723-1.2-9.133-5.479-.722 1.2zm-10.442 6.727a6.56 6.56 0 002.543 1.112 4.009 4.009 0 002.325-.223 4.116 4.116 0 001.8-1.512 3.949 3.949 0 00.125-4.462 6.525 6.525 0 00-1.932-1.979l-.633-.435a6.32 6.32 0 00-2.5-1.05 3.972 3.972 0 00-4.083 1.731 4.538 4.538 0 00-.523.99l-2.743.837.185 1.291 2.308-.719a4.1 4.1 0 00.656 2.122 6.6 6.6 0 001.912 1.912zm.152-1.6a4.751 4.751 0 01-1.9-2.245 2.7 2.7 0 012.451-3.449 4.823 4.823 0 012.807 1.005l.645.444a4.681 4.681 0 011.87 2.243 2.706 2.706 0 01-2.4 3.478 4.838 4.838 0 01-2.814-1.028zm-1.854 11.646l-5.568-4.595a2.433 2.433 0 01-.98-1.628 2.462 2.462 0 014.11-2.153l5.562 4.591.885-1.072-5.6-4.618a3.373 3.373 0 00-2.673-.841 3.984 3.984 0 00-2.5 1.549l-.227.3a3.818 3.818 0 00-.793 2.65 3.4 3.4 0 001.3 2.3l5.586 4.609zm-10.5 4.561l3.21-3.317 2.464 2.401-3.678 3.8.825.8 4.655-4.81-7.653-7.406-4.705 4.862.825.8 3.728-3.853 2.712 2.625-3.209 3.316zm-14.347 4.528l-1.112.917 9.921 5.621.948-.782-3.642-10.8-1.117.922 1 2.787-3.441 2.84zm8.18 4.81l-4.57-2.687 2.793-2.305zm-13.959 6.246a6.579 6.579 0 001.98 1.944 4.008 4.008 0 002.253.619 4.124 4.124 0 002.217-.772 3.95 3.95 0 001.705-4.125 6.5 6.5 0 00-1.1-2.538l-.437-.628a6.317 6.317 0 00-1.959-1.87 3.972 3.972 0 00-4.432.164 4.529 4.529 0 00-.84.739l-2.862-.195-.287 1.273 2.413.149a4.1 4.1 0 00-.142 2.216 6.574 6.574 0 001.105 2.468zm.713-1.442a4.753 4.753 0 01-.981-2.775 2.7 2.7 0 013.519-2.351 4.825 4.825 0 012.265 1.939l.444.645a4.677 4.677 0 01.949 2.762 2.705 2.705 0 01-3.485 2.393 4.83 4.83 0 01-2.263-1.962zm-5.872 10.216l-3.566-6.274a2.436 2.436 0 01-.335-1.871 2.915 2.915 0 013.166-1.794 2.434 2.434 0 011.44 1.247l3.562 6.271 1.209-.686-3.584-6.309a3.373 3.373 0 00-2.2-1.738 3.983 3.983 0 00-2.889.556l-.317.2a3.815 3.815 0 00-1.686 2.194 3.4 3.4 0 00.394 2.611l3.576 6.3zm-5.258 2.671l1.261-.619-4.688-9.562-1.261.618zm-12.723-1.59a4.131 4.131 0 00-2.3 1.77 2.989 2.989 0 00-.057 2.577 3.028 3.028 0 001.767 1.856 3.947 3.947 0 002.877-.14l3.672-1.4-3.787-9.954-1.313.5 1.483 3.9zm4.241 4.092l-2.434.926a2.369 2.369 0 01-1.749.031 2.009 2.009 0 01-1.1-1.212 1.941 1.941 0 01.015-1.648 2.525 2.525 0 011.425-1.11l2.358-.9zm-16.662-4.44l-1.382.409 6.931 9.054 1.179-.349.874-11.366-1.388.412-.17 2.956-4.283 1.267zm5.646 7.627l-3.154-4.261 3.472-1.028zm-14.614-5.634l-1.475.306.017.086 3.368 3.918a3.206 3.206 0 00-1.24 1.385 2.863 2.863 0 00-.174 1.806 2.945 2.945 0 001.433 2.138 4.168 4.168 0 002.877.24l3.452-.716-2.163-10.428-1.383.287.876 4.218-2.45.508zm6.643 8.325l-2.106.437a2.5 2.5 0 01-1.774-.178 1.934 1.934 0 01-.884-1.366 1.83 1.83 0 01.31-1.546 2.433 2.433 0 011.519-.869l2.113-.438zm-16.552-6.952l-1.43.175 5.335 10.077 1.22-.149 2.746-11.064-1.438.175-.657 2.888-4.429.541zm4.305 8.457l-2.405-4.725 3.594-.439zm-11.384 2.607l1.529-.025-4.112-10.585-1.243.02-3.777 10.713 1.536-.025 2.9-8.833zm-15.739-5.059l4.6.331-.244 3.421-5.274-.379-.083 1.145 6.676.48.764-10.622-6.749-.485-.082 1.145 5.348.386-.271 3.764-4.6-.331zm-8.279-7.247l-1.491-.224-.013.087 1.8 4.842a3.2 3.2 0 00-1.643.87 2.863 2.863 0 00-.789 1.635 2.946 2.946 0 00.6 2.5 4.173 4.173 0 002.616 1.221l3.487.523 1.579-10.532-1.4-.209-.639 4.26-2.474-.371zm3.35 10.11l-2.127-.319a2.494 2.494 0 01-1.6-.781 1.933 1.933 0 01-.358-1.587 1.836 1.836 0 01.827-1.344 2.432 2.432 0 011.726-.289l2.134.32zm-19.515-8.185a6.619 6.619 0 00-.214 2.774 3.98 3.98 0 00.976 2.125 4.129 4.129 0 002.013 1.193 3.95 3.95 0 004.255-1.348 6.505 6.505 0 001.232-2.476l.2-.741a6.321 6.321 0 00.168-2.7 4.221 4.221 0 00-5.314-3.287 3.991 3.991 0 00-1.91 1.323 6.582 6.582 0 00-1.23 2.5zm1.552-.379a4.756 4.756 0 011.492-2.538 2.7 2.7 0 014.066 1.175 4.782 4.782 0 01-.018 2.987l-.207.755a4.672 4.672 0 01-1.5 2.5 2.483 2.483 0 01-2.289.424 2.509 2.509 0 01-1.785-1.54 4.774 4.774 0 01.035-3zm-10.212 2.623l1.415.578.374-11.35-1.151-.47-7.678 8.369 1.422.58 6.137-6.983zm-10.322-4.5l1.266.608 4.606-9.6-1.266-.608zm.969 1.346l-.981-.475-2.7 1.091 1.477.709zm-1.337-13.523a5.15 5.15 0 00-2.5-.68 4.091 4.091 0 00-2.3.713 5.711 5.711 0 00-1.793 2.024l-.331.594a5.689 5.689 0 00-.753 2.561 4.156 4.156 0 00.59 2.33 4.837 4.837 0 001.848 1.733l2.626 1.463 5.183-9.3zm-4.707 8.254a3.032 3.032 0 01-1.615-2.069 4.242 4.242 0 01.629-2.88l.3-.543a4.171 4.171 0 012.189-2.074 3.211 3.211 0 012.7.347l1.291.719-4.065 7.3zm-9.69-10.044l3.84 2.56-1.9 2.855-4.4-2.934-.637.955 5.568 3.713 5.909-8.86-5.633-3.754-.637.955 4.461 2.975-2.094 3.14-3.84-2.561zm-8.672-7.192a6.616 6.616 0 00-1.281 2.469 3.982 3.982 0 00.066 2.338 4.129 4.129 0 001.385 1.885 3.948 3.948 0 004.444.421 6.5 6.5 0 002.1-1.8l.477-.6a6.311 6.311 0 001.213-2.421 4.223 4.223 0 00-3.6-5.106 3.983 3.983 0 00-2.275.47 6.576 6.576 0 00-2.109 1.814zm1.577.259a4.76 4.76 0 012.366-1.751 2.7 2.7 0 013.281 2.673 4.784 4.784 0 01-1.186 2.742l-.486.613a4.679 4.679 0 01-2.362 1.717 2.482 2.482 0 01-2.272-.507 2.509 2.509 0 01-1.04-2.116 4.774 4.774 0 011.209-2.751zm-8.908-7.527a1.422 1.422 0 00.472-1.022 1.666 1.666 0 00-1.511-1.566 1.407 1.407 0 00-1.026.433l-.194.188a1.423 1.423 0 00-.485 1.05 1.5 1.5 0 00.466 1.055 1.451 1.451 0 001.045.491 1.426 1.426 0 001.034-.436zM29.157 195.32a2.942 2.942 0 011.977-.436 2.7 2.7 0 011.5 1.124 2.341 2.341 0 01.387 2.238 4.7 4.7 0 01-1.782 2.228l-.828.616a4.568 4.568 0 01-2.729 1.077 2.511 2.511 0 01-2.058-1.1 2.4 2.4 0 01-.56-1.712 3.062 3.062 0 011.01-1.74l-.843-1.131a3.963 3.963 0 00-1.392 2.521 3.849 3.849 0 00.864 2.749 4.18 4.18 0 001.828 1.447 3.959 3.959 0 002.285.174 6.058 6.058 0 002.412-1.133l.822-.611a5.445 5.445 0 002.226-3.073 3.754 3.754 0 00-.719-3.235 4.086 4.086 0 00-2.4-1.691 3.922 3.922 0 00-2.837.555zm-8.987-.358l.752 1.195 9.012-5.675-3.442-5.466-.972.612 2.689 4.271zm-4.5-7.55l.684 1.227 9.3-5.19-.684-1.226zm-.628-12.4a6.561 6.561 0 00-2.231 1.651 4.009 4.009 0 00-.965 2.127 4.126 4.126 0 00.416 2.311 3.949 3.949 0 003.806 2.331 6.5 6.5 0 002.679-.689l.693-.331a6.326 6.326 0 002.154-1.642 3.972 3.972 0 00.534-4.4 4.571 4.571 0 00-.6-.947l.642-2.795-1.212-.483-.527 2.357a4.112 4.112 0 00-2.167-.488 6.576 6.576 0 00-2.61.705zm1.312.93a4.753 4.753 0 012.9-.533 2.7 2.7 0 011.769 3.844 4.817 4.817 0 01-2.27 1.933l-.706.337a4.668 4.668 0 01-2.876.5 2.705 2.705 0 01-1.817-3.817 4.833 4.833 0 012.293-1.928zm-9.179-7.446l6.756-2.527a2.429 2.429 0 011.9-.036 2.912 2.912 0 011.272 3.409 2.435 2.435 0 01-1.459 1.226l-6.754 2.528.487 1.3 6.8-2.543a3.374 3.374 0 002.063-1.9 3.983 3.983 0 00-.093-2.94l-.144-.345a3.817 3.817 0 00-1.9-2.01 3.394 3.394 0 00-2.641-.023l-6.782 2.538zm1.3-11.376l1.267 4.438-3.3.942-1.452-5.085-1.1.315 1.835 6.439 10.241-2.924-1.857-6.506-1.1.316 1.472 5.155-3.629 1.036-1.267-4.438zm3.269-14.682l-.237-1.421-9.836 5.767.2 1.213 11.173 2.262-.238-1.428-2.913-.531-.733-4.4zm-8.262 4.668l4.616-2.608.595 3.571zm1.6-15.206a6.563 6.563 0 00-2.675.738 4.009 4.009 0 00-1.665 1.639 4.122 4.122 0 00-.443 2.305 3.95 3.95 0 002.714 3.544 6.519 6.519 0 002.747.32l.771-.06a6.332 6.332 0 002.6-.758 3.974 3.974 0 002.081-3.916 4.569 4.569 0 00-.218-1.1l1.6-2.379-.957-.886-1.339 2.013a4.117 4.117 0 00-1.847-1.235 6.578 6.578 0 00-2.689-.28zm.89 1.339a4.756 4.756 0 012.893.543 2.7 2.7 0 01.269 4.224 4.816 4.816 0 01-2.813.987l-.78.061a4.666 4.666 0 01-2.865-.564 2.705 2.705 0 01-.323-4.215 4.836 4.836 0 012.833-.974zM.092 122.95l7.221.119a2.436 2.436 0 011.781.662 2.912 2.912 0 01-.063 3.638 2.435 2.435 0 01-1.806.608l-7.211-.117-.023 1.389 7.256.12a3.375 3.375 0 002.613-1.011 3.986 3.986 0 00.989-2.771l-.009-.374a3.818 3.818 0 00-1.034-2.566 3.4 3.4 0 00-2.449-.987l-7.24-.117zm.29-5.768l-.094 1.4 10.626.713.094-1.4zm7.729-10.231a4.121 4.121 0 00-.388-2.873 2.984 2.984 0 00-2.2-1.334 3.026 3.026 0 00-2.49.6 3.945 3.945 0 00-1.314 2.564l-.621 3.878 10.516 1.683.222-1.386-4.117-.659zm-5.662 1.635l.412-2.571a2.362 2.362 0 01.846-1.531 2.007 2.007 0 011.6-.352 1.942 1.942 0 011.424.837 2.522 2.522 0 01.252 1.788l-.4 2.492zm12.166-12.258l.335-1.4-11.3 1.491-.285 1.2 9.415 6.428.336-1.409-2.485-1.628 1.036-4.34zm-9.427 1.089l5.266-.608-.84 3.522zm12.169-9.842l.474-1.431-.083-.027-5.075.965a3.209 3.209 0 00-.582-1.766 2.867 2.867 0 00-1.479-1.052 2.948 2.948 0 00-2.568.176 4.173 4.173 0 00-1.643 2.374l-1.1 3.349 10.117 3.326.441-1.341-4.098-1.346.781-2.377zM6.831 89.18l.672-2.043a2.494 2.494 0 011.036-1.448 1.931 1.931 0 011.625-.086 1.834 1.834 0 011.185 1.04 2.434 2.434 0 010 1.75l-.674 2.05zm14.273-10.861l.562-1.327-11.4-.405-.474 1.132 8.218 7.9.565-1.334-2.175-2.01 1.742-4.106zm-9.473-.489l5.294.274-1.413 3.334zm3.47-11.311l-.758 1.328 11.2 1.853.616-1.08-7.293-8.708-.761 1.334 6.123 7zm12.23-10.968l-2.6 3.818-2.837-1.928 2.977-4.372-.95-.646-3.762 5.535 8.808 5.987 3.8-5.6-.95-.645-3.014 4.434-3.122-2.122 2.595-3.817zm10.415-3.523l.94-1.177-.069-.055-5.093-.866a3.208 3.208 0 00.07-1.858 2.867 2.867 0 00-1.019-1.5 2.948 2.948 0 00-2.468-.731 4.174 4.174 0 00-2.368 1.652l-2.2 2.755 8.322 6.646.881-1.1-3.366-2.688 1.561-1.955zM27.317 49.86l1.342-1.68a2.494 2.494 0 011.479-.995 1.932 1.932 0 011.553.486 1.835 1.835 0 01.748 1.389 2.435 2.435 0 01-.615 1.639l-1.347 1.686zm16.855-12.791a6.621 6.621 0 00-2.3-1.573 3.983 3.983 0 00-2.329-.218 4.129 4.129 0 00-2.039 1.147 3.949 3.949 0 00-.956 4.36 6.51 6.51 0 001.528 2.305l.54.546a6.32 6.32 0 002.257 1.5 4.223 4.223 0 005.5-2.958 3.989 3.989 0 00-.191-2.316 6.587 6.587 0 00-1.546-2.313zm-.449 1.534a4.755 4.755 0 011.452 2.561 2.7 2.7 0 01-3.05 2.933 4.781 4.781 0 01-2.577-1.51l-.55-.557a4.677 4.677 0 01-1.418-2.553 2.482 2.482 0 01.778-2.194 2.509 2.509 0 012.226-.776 4.775 4.775 0 012.585 1.533zm2.808-10.144l-1.206.939 9.651 5.985.981-.764-3.426-10.831-1.212.943 2.993 8.8zm9.052-6.707l-1.158.8 6.03 8.779 1.158-.8zm-1.649.17l.9-.614.4-2.883-1.351.928zm12.4 5.574a5.145 5.145 0 001.83-1.827 4.091 4.091 0 00.527-2.347 5.709 5.709 0 00-.86-2.563l-.35-.583a5.691 5.691 0 00-1.85-1.929 4.156 4.156 0 00-2.314-.649 4.841 4.841 0 00-2.423.739l-2.577 1.549 5.485 9.128zm-4.812-8.193a3.033 3.033 0 012.6-.37 4.24 4.24 0 012.184 1.98l.321.533a4.175 4.175 0 01.708 2.932 3.215 3.215 0 01-1.646 2.167l-1.266.761-4.3-7.16zm13.539-3.4l-4.133 2.053-1.526-3.072 4.729-2.351-.511-1.029-5.989 2.978 4.738 9.538 6.06-3.01-.511-1.029-4.8 2.385-1.687-3.38 4.134-2.053zm10.559-3.929a6.619 6.619 0 00-1.5-2.344 3.981 3.981 0 00-2.059-1.109 4.129 4.129 0 00-2.325.26 3.949 3.949 0 00-2.582 3.641 6.51 6.51 0 00.507 2.719l.284.714a6.319 6.319 0 001.486 2.26 4.223 4.223 0 006.223-.575 3.989 3.989 0 00.728-2.207 6.587 6.587 0 00-.521-2.733zm-1.011 1.237a4.756 4.756 0 01.337 2.924 2.7 2.7 0 01-3.953 1.51 4.781 4.781 0 01-1.784-2.4l-.289-.727a4.677 4.677 0 01-.309-2.9 2.482 2.482 0 011.573-1.716 2.509 2.509 0 012.347.156 4.776 4.776 0 011.782 2.42zm10.963-3.953a1.42 1.42 0 00.648.92 1.667 1.667 0 002.112-.524 1.406 1.406 0 00.139-1.105l-.066-.263a1.423 1.423 0 00-.666-.946 1.5 1.5 0 00-1.147-.124 1.451 1.451 0 00-.947.659 1.423 1.423 0 00-.14 1.113z" fill="#dea952" fill-rule="evenodd" opacity=".4"/></svg>